<?xml version="1.0" encoding="UTF-8" standalone="no"?>
<!DOCTYPE svg PUBLIC "-//W3C//DTD SVG 20010904//EN"
              "http://www.w3.org/TR/2001/REC-SVG-20010904/DTD/svg10.dtd">

<svg xmlns="http://www.w3.org/2000/svg"
     width="1.33317in" height="1.33317in"
     viewBox="0 0 96 96">
  <path id="svg"
        fill="green" stroke="none" fill-rule="evenodd"
        d="M 37.00,12.00
           C 42.04,19.76 42.29,16.41 48.00,16.59
             50.64,16.41 52.56,17.66 54.82,16.59
             54.82,16.59 61.00,12.00 61.00,12.00
             61.00,12.00 58.00,20.00 58.00,20.00
             64.73,23.70 66.63,27.50 67.00,35.00
             67.00,35.00 29.00,35.00 29.00,35.00
             29.64,27.91 31.65,23.59 38.00,20.00
             38.00,20.00 35.00,12.00 35.00,12.00
             35.00,12.00 37.00,12.00 37.00,12.00 Z
           M 38.00,25.00
           C 38.00,25.00 38.00,28.00 38.00,28.00
             38.00,28.00 41.00,28.00 41.00,28.00
             41.00,28.00 41.00,25.00 41.00,25.00
             41.00,25.00 38.00,25.00 38.00,25.00 Z
           M 55.00,25.00
           C 55.00,25.00 55.00,28.00 55.00,28.00
             55.00,28.00 58.00,28.00 58.00,28.00
             58.00,28.00 58.00,25.00 58.00,25.00
             58.00,25.00 55.00,25.00 55.00,25.00 Z
           M 76.98,37.04
           C 76.98,37.04 78.00,43.00 78.00,43.00
             78.00,43.00 76.98,60.96 76.98,60.96
             76.98,60.96 73.00,65.00 73.00,65.00
             73.00,65.00 69.60,60.00 69.60,60.00
             69.60,60.00 69.60,38.00 69.60,38.00
             69.60,38.00 73.00,33.00 73.00,33.00
             73.00,33.00 76.98,37.04 76.98,37.04 Z
           M 25.98,38.04
           C 27.10,40.15 26.98,42.69 27.00,45.00
             27.05,53.11 28.93,59.60 22.00,65.00
             22.00,65.00 18.60,60.00 18.60,60.00
             18.60,60.00 18.60,39.00 18.60,39.00
             18.60,39.00 22.00,34.00 22.00,34.00
             23.70,35.33 24.90,36.03 25.98,38.04 Z
           M 67.00,37.00
           C 67.00,37.00 67.00,69.00 67.00,69.00
             67.00,69.00 60.00,69.00 60.00,69.00
             60.00,72.89 61.11,83.80 55.00,83.80
             48.89,83.80 50.00,72.89 50.00,69.00
             50.00,69.00 46.00,69.00 46.00,69.00
             46.00,72.89 47.11,83.80 41.00,83.80
             34.89,83.80 36.00,72.89 36.00,69.00
             36.00,69.00 29.00,69.00 29.00,69.00
             29.00,69.00 29.00,37.00 29.00,37.00
             29.00,37.00 67.00,37.00 67.00,37.00 Z" />
</svg>
